<mxfile host="app.diagrams.net" modified="2024-03-02T21:01:54.114Z" agent="Mozilla/5.0 (X11; Ubuntu; Linux x86_64; rv:122.0) Gecko/20100101 Firefox/122.0" version="24.0.0" etag="d4L5RQSX10T4KaMLcdai" type="github">
  <diagram name="Page-1" id="sNv6-coz0srxzh945HwQ">
    <mxGraphModel>
      <root>
        <mxCell id="0" />
        <mxCell id="1" parent="0" />
      </root>
    </mxGraphModel>
  </diagram>
</mxfile>
